<mxfile host="app.diagrams.net" modified="2024-01-17T03:04:46.961Z" agent="Mozilla/5.0 (Windows NT 10.0; Win64; x64) AppleWebKit/537.36 (KHTML, like Gecko) Chrome/120.0.0.0 Safari/537.36 Edg/120.0.0.0" version="22.1.18" etag="D6V76qyB13Hu9BJ3dzth" type="github">
  <diagram name="Page-1" id="BcyB234CtOLMHF4k1TbB">
    <mxGraphModel>
      <root>
        <mxCell id="0" />
        <mxCell id="1" parent="0" />
      </root>
    </mxGraphModel>
  </diagram>
</mxfile>
